<?xml version="1.0" encoding="UTF-8" standalone="no"?>
<!-- Created with Inkscape (http://www.inkscape.org/) -->

<svg
   width="512"
   height="512"
   viewBox="0 0 512 512"
   version="1.1"
   id="svg1"
   xml:space="preserve"
   xmlns="http://www.w3.org/2000/svg"
   xmlns:svg="http://www.w3.org/2000/svg"><defs
     id="defs1" /><g
     id="layer1"><rect
       style="fill:#dbc09d;fill-opacity:1;stroke-width:1.02446"
       id="rect1"
       width="115.49897"
       height="173.6367"
       x="53.725494"
       y="302.5174" /><rect
       style="fill:#cd7a08;fill-opacity:1;stroke-width:1.47963"
       id="rect2"
       width="115.49897"
       height="362.20145"
       x="195.67644"
       y="113.95265" /><rect
       style="fill:#803c12;fill-opacity:0.933333;stroke-width:1.24138"
       id="rect3"
       width="115.49897"
       height="254.95551"
       x="336.72018"
       y="221.59366" /><path
       style="fill:#a27236;fill-opacity:1;stroke-width:1.22054"
       id="path49"
       d="m 152.83051,254.22032 a 39.572269,39.572269 0 0 1 -36.8768,39.48036 39.572269,39.572269 0 0 1 -41.900536,-34.10195 39.572269,39.572269 0 0 1 31.168686,-44.12607 l 8.03638,38.74766 z" /><path
       style="fill:#ad553b;fill-opacity:1;stroke-width:2.0261"
       id="path50"
       d="m 467.50611,-10.989272 a 39.572269,39.572269 0 0 1 -24.2991,36.506091 39.572269,39.572269 0 0 1 -43.05588,-8.326569 l 27.78271,-28.179522 z"
       transform="rotate(24.320054)" /><circle
       style="fill:#ffee3d;fill-opacity:1;stroke-width:0.938041"
       id="path52"
       cx="181.30824"
       cy="169.57019"
       r="5.4963355" /><path
       style="fill:#cea878;fill-opacity:1;stroke-width:1.22054"
       id="path265"
       d="m -12.58902,255.15758 a 39.572269,39.572269 0 0 1 -31.849824,38.81144 39.572269,39.572269 0 0 1 -44.280677,-23.6635 39.572269,39.572269 0 0 1 14.567262,-48.04721 39.572269,39.572269 0 0 1 49.966218,4.91088 l -27.975248,27.98839 z"
       transform="rotate(-87.826012)" /><circle
       style="fill:#ffee3d;fill-opacity:1;stroke-width:0.938041"
       id="circle265"
       cx="-25.346107"
       cy="245.07132"
       transform="rotate(-87.826012)"
       r="5.4963355" /><circle
       style="fill:#ffee3d;fill-opacity:1;stroke-width:0.938041"
       id="circle265-8"
       cx="-125.82642"
       cy="399.34177"
       transform="rotate(-87.826012)"
       r="5.4963355" /></g></svg>
